<?xml version="1.0" encoding="utf-8"?>
<!-- Generator: Adobe Illustrator 23.0.1, SVG Export Plug-In . SVG Version: 6.00 Build 0)  -->
<svg version="1.1" id="Layer_1" xmlns="http://www.w3.org/2000/svg" xmlns:xlink="http://www.w3.org/1999/xlink" x="0px" y="0px"
	 viewBox="0 0 70 70" style="enable-background:new 0 0 70 70;" xml:space="preserve">
<style type="text/css">
	.st0{fill:none;stroke:#004EFF;stroke-width:2.2;stroke-linecap:round;stroke-miterlimit:10;}
	.st1{fill:none;stroke:#F88B00;stroke-width:2.2;stroke-linecap:round;stroke-linejoin:round;stroke-miterlimit:10;}
</style>
<g>
	<path class="st1" d="M34.36,8.8l1.67,3.39l3.7,0.54c0.2,0.03,0.28,0.28,0.14,0.42l-2.68,2.61l0.63,3.69
		c0.03,0.2-0.18,0.36-0.36,0.26l-3.31-1.74l-3.31,1.74c-0.18,0.1-0.39-0.06-0.36-0.26l0.63-3.69l-2.68-2.61
		c-0.15-0.14-0.07-0.39,0.14-0.42l3.7-0.54l1.67-3.39C34.03,8.63,34.27,8.63,34.36,8.8z"/>
	<path class="st1" d="M28.36,58.95h13.41c0.84,0,1.56-0.62,1.67-1.46l0.79-5.93c0.49-3.72-0.05-7.5-1.56-10.93L35.14,23.5
		c-0.26-0.59-1.1-0.58-1.34,0.02l-6.78,17.05c-1.47,3.7-1.89,7.74-1.22,11.67l0.91,5.3C26.85,58.36,27.54,58.95,28.36,58.95z"/>
	<path class="st1" d="M42.82,40.64l6.95,6.1c1.17,1.03,2.05,2.34,2.54,3.82l2.39,7.09c0.31,0.93-0.79,1.69-1.55,1.07l-4.62-3.81
		c-1.69-1.03-4.14-0.44-4.14-0.44"/>
	<path class="st1" d="M27.18,40.64l-6.95,6.1c-1.17,1.03-2.05,2.34-2.54,3.82l-2.39,7.09c-0.31,0.93,0.79,1.69,1.55,1.07l4.62-3.81
		c1.69-1.03,4.02-0.43,4.02-0.43"/>
	<path class="st1" d="M39.2,42.16c0,2.39-1.94,4.33-4.33,4.33c-2.39,0-4.33-1.94-4.33-4.33c0-2.39,1.94-4.33,4.33-4.33
		C37.26,37.82,39.2,39.76,39.2,42.16z"/>
	<path class="st1" d="M32.53,63.46c0-1.33,1.08-2.42,2.42-2.42c1.33,0,2.42,1.08,2.42,2.42c0,1.33-2.42,4.96-2.42,4.5
		C34.94,67.96,32.53,64.8,32.53,63.46z"/>
	<g>
		<line class="st1" x1="26.93" y1="20.87" x2="24.51" y2="23.17"/>
		<line class="st1" x1="24.43" y1="13.96" x2="21.25" y2="13.96"/>
		<line class="st1" x1="27.17" y1="7.44" x2="24.92" y2="5.21"/>
		<line class="st1" x1="34.17" y1="5.16" x2="34.17" y2="2"/>
		<line class="st1" x1="41.62" y1="7.89" x2="43.9" y2="5.68"/>
		<line class="st1" x1="43.88" y1="14.3" x2="47.05" y2="14.3"/>
		<line class="st1" x1="41.35" y1="20.87" x2="43.96" y2="23.47"/>
	</g>
</g>
</svg>
