<?xml version="1.0" encoding="utf-8"?>
<!-- Generator: Adobe Illustrator 23.0.1, SVG Export Plug-In . SVG Version: 6.00 Build 0)  -->
<svg version="1.1" id="Layer_1" xmlns="http://www.w3.org/2000/svg" xmlns:xlink="http://www.w3.org/1999/xlink" x="0px" y="0px"
	 viewBox="0 0 70 70" style="enable-background:new 0 0 70 70;" xml:space="preserve">
<style type="text/css">
	.st0{fill:none;stroke:#004EFF;stroke-width:2.2;stroke-linecap:round;stroke-miterlimit:10;}
	.st1{fill:none;stroke:#F88B00;stroke-width:2.2;stroke-linecap:round;stroke-linejoin:round;stroke-miterlimit:10;}
	.st2{fill:none;stroke:#F88B00;stroke-width:2.6597;stroke-linecap:round;stroke-miterlimit:10;}
</style>
<g>
	<path class="st0" d="M12.59,41.44l-6.99,6c-0.65,0.56-1.65,0.1-1.65-0.76V10.42c0-2.89,2.34-5.24,5.24-5.24h38.69
		c2.89,0,5.24,2.34,5.24,5.24v22.76c0,2.89-2.34,5.24-5.24,5.24h-25.1"/>
	<path class="st0" d="M57.8,22.46h1.38c3.79,0,6.87,3.08,6.87,6.87v19.49c0,3.79-3.08,6.87-6.87,6.87H29.05l-10.51,9.02
		c-0.65,0.56-1.65,0.1-1.65-0.76V29.33c0-3.79,3.08-6.87,6.87-6.87h22.91"/>
</g>
</svg>
