<?xml version="1.0" encoding="utf-8"?>
<!-- Generator: Adobe Illustrator 23.0.1, SVG Export Plug-In . SVG Version: 6.00 Build 0)  -->
<svg version="1.1" id="Layer_1" xmlns="http://www.w3.org/2000/svg" xmlns:xlink="http://www.w3.org/1999/xlink" x="0px" y="0px"
	 viewBox="0 0 70 70" style="enable-background:new 0 0 70 70;" xml:space="preserve">
<style type="text/css">
	.st0{fill:none;stroke:#004EFF;stroke-width:2.2;stroke-linecap:round;stroke-miterlimit:10;}
	.st1{fill:none;stroke:#F88B00;stroke-width:2.2;stroke-linecap:round;stroke-linejoin:round;stroke-miterlimit:10;}
</style>
<g>
	<g>
		<path class="st1" d="M53.17,36.12h-11.3v-8.27c0-3.19-0.9-5.48-2.7-6.79c-2.86-2.13-6.79-0.9-6.96-0.82
			c-0.33,0.08-0.57,0.41-0.57,0.82v8.84c0,7.29-8.35,9.66-8.68,9.82l-0.74,0.25c-0.49-0.82-1.39-1.39-2.46-1.39h-6.79
			c-1.56,0-2.78,1.23-2.78,2.78v22.43c0,1.56,1.23,2.78,2.78,2.78h6.79c0.98,0,1.88-0.57,2.37-1.39c1.23,1.64,3.11,2.7,5.32,2.7H49
			c4.58,0,7.45-2.37,7.94-6.47l2.87-18.25c0-0.08,0-0.08,0-0.16v-0.25C59.8,39.07,56.77,36.12,53.17,36.12z"/>
		<line class="st1" x1="22.23" y1="39.97" x2="22.23" y2="65.18"/>
	</g>
	<g>
		<line class="st1" x1="34.77" y1="10.94" x2="34.77" y2="2.12"/>
		<line class="st1" x1="42" y1="14.82" x2="49.36" y2="7.83"/>
		<line class="st1" x1="46.36" y1="21.6" x2="55.43" y2="21.6"/>
		<line class="st1" x1="24.11" y1="21.6" x2="14.57" y2="21.6"/>
		<line class="st1" x1="27.76" y1="14.41" x2="21.07" y2="8.14"/>
	</g>
</g>
</svg>
