<?xml version="1.0" encoding="utf-8"?>
<!-- Generator: Adobe Illustrator 23.0.1, SVG Export Plug-In . SVG Version: 6.00 Build 0)  -->
<svg version="1.1" id="Layer_1" xmlns="http://www.w3.org/2000/svg" xmlns:xlink="http://www.w3.org/1999/xlink" x="0px" y="0px"
	 viewBox="0 0 70 70" style="enable-background:new 0 0 70 70;" xml:space="preserve">
<style type="text/css">
	.st0{fill:none;stroke:#004EFF;stroke-width:2.2;stroke-linecap:round;stroke-miterlimit:10;}
	.st1{fill:none;stroke:#F88B00;stroke-width:2.2;stroke-linecap:round;stroke-linejoin:round;stroke-miterlimit:10;}
</style>
<g>
	<path class="st1" d="M36.38,60.27H20.96c-1.6,0-2.9-1.3-2.9-2.9V14.97c0-1.6,1.3-2.9,2.9-2.9h24.77l8.97,10.51v16.37"/>
	<path class="st1" d="M44.68,12.29V6.3c0-1.22-0.99-2.21-2.21-2.21H11.52c-1.22,0-2.21,0.99-2.21,2.21v43.78
		c0,1.22,0.99,2.21,2.21,2.21h6.45"/>
	<line class="st1" x1="24.82" y1="32.95" x2="47.95" y2="32.95"/>
	<line class="st1" x1="24.82" y1="38.96" x2="47.95" y2="38.96"/>
	<line class="st1" x1="24.82" y1="44.97" x2="37.88" y2="44.97"/>
	<path class="st1" d="M45.73,12.07v8.57c0,1.25,1.01,2.26,2.26,2.26h6.71"/>
	<g>
		<path class="st1" d="M58.65,52.39c0,5.22-4.23,9.46-9.46,9.46c-5.22,0-9.46-4.23-9.46-9.46c0-5.22,4.23-9.46,9.46-9.46
			C54.42,42.93,58.65,47.17,58.65,52.39z"/>
		<line class="st1" x1="55.21" y1="59.69" x2="60.69" y2="65.91"/>
	</g>
</g>
</svg>
