<?xml version="1.0" encoding="utf-8"?>
<!-- Generator: Adobe Illustrator 23.0.1, SVG Export Plug-In . SVG Version: 6.00 Build 0)  -->
<svg version="1.1" id="Layer_1" xmlns="http://www.w3.org/2000/svg" xmlns:xlink="http://www.w3.org/1999/xlink" x="0px" y="0px"
	 viewBox="0 0 70 70" style="enable-background:new 0 0 70 70;" xml:space="preserve">
<style type="text/css">
	.st0{fill:none;stroke:#004EFF;stroke-width:2.2;stroke-linecap:round;stroke-miterlimit:10;}
	.st1{fill:none;stroke:#F88B00;stroke-width:2.2;stroke-linecap:round;stroke-linejoin:round;stroke-miterlimit:10;}
</style>
<g>
	<path class="st1" d="M41.67,9.82H10.25c-3.8,0-6.87,3.08-6.87,6.87v29.07c0,3.8,3.08,6.87,6.87,6.87h46.29l7.89,7.23
		c0.86,0.74,2.19,0.13,2.19-1.01V16.69c0-3.8-3.08-6.87-6.87-6.87h-6.41H41.67z"/>
	<g>
		<polyline class="st1" points="56.54,21.38 44.83,38.39 39.88,33.44 		"/>
	</g>
	<g>
		<path class="st1" d="M13,26.02c0-4.21,3.41-7.62,7.62-7.62c4.21,0,7.62,3.41,7.62,7.62c0,4.21-3.41,7.62-7.62,7.62v5.04"/>
		<path class="st1" d="M21.1,43.53c0,0.36-0.29,0.65-0.65,0.65c-0.36,0-0.65-0.29-0.65-0.65c0-0.36,0.29-0.65,0.65-0.65
			C20.81,42.87,21.1,43.16,21.1,43.53z"/>
	</g>
</g>
</svg>
