<?xml version="1.0" encoding="utf-8"?>
<!-- Generator: Adobe Illustrator 23.0.1, SVG Export Plug-In . SVG Version: 6.00 Build 0)  -->
<svg version="1.1" id="Layer_1" xmlns="http://www.w3.org/2000/svg" xmlns:xlink="http://www.w3.org/1999/xlink" x="0px" y="0px"
	 viewBox="0 0 70 70" style="enable-background:new 0 0 70 70;" xml:space="preserve">
<style type="text/css">
	.st0{fill:none;stroke:#004EFF;stroke-width:2.2;stroke-linecap:round;stroke-miterlimit:10;}
	.st1{fill:none;stroke:#F88B00;stroke-width:2.2;stroke-linecap:round;stroke-linejoin:round;stroke-miterlimit:10;}
</style>
<g>
	<g>
		<path class="st1" d="M9.17,27.46c0-12.16,12.52-22,26.18-22S60.9,14.62,60.9,26.77"/>
		<path class="st1" d="M60,23.57c-6.21,2.63-14.96,4.27-24.65,4.27c-9.69,0-18.44-1.64-24.65-4.27"/>
		<path class="st1" d="M57.02,17.44c-5.75,2.03-13.25,3.26-21.47,3.26s-15.72-1.23-21.47-3.26"/>
		<path class="st1" d="M47.37,8.79C44.2,11.08,39.83,12.5,35,12.5c-4.73,0-9.03-1.36-12.17-3.57"/>
		<line class="st1" x1="35.35" y1="12.55" x2="35.35" y2="30.53"/>
		<path class="st1" d="M41.37,12.23c0,0,8.93,4.45,9.72,17.76"/>
		<path class="st1" d="M29.29,12.23c0,0-8.75,4.14-9.54,17.76"/>
	</g>
	<g>
		<g>
			<g>
				<path class="st1" d="M15.8,38.3c0,2.09-1.7,3.79-3.79,3.79s-3.79-1.7-3.79-3.79c0-2.09,1.7-3.79,3.79-3.79S15.8,36.21,15.8,38.3
					z"/>
				<path class="st1" d="M5.42,49.64c0-3.72,1.56-6.73,6.73-6.73l0,0c5.17,0,6.73,3.01,6.73,6.73v0.48"/>
				<path class="st1" d="M12.15,56.5v6.23c0,1-0.81,1.8-1.8,1.8l0,0c-1,0-1.8-0.81-1.8-1.8V48.61"/>
				<path class="st1" d="M15.76,48.61v14.12c0,1-0.81,1.8-1.8,1.8l0,0c-1,0-1.8-0.81-1.8-1.8V56.5"/>
				<path class="st1" d="M18.89,49.46v4.24c0,0.67-0.7,1.22-1.56,1.22l0,0c-0.86,0-1.56-0.54-1.56-1.22V48.5"/>
				<path class="st1" d="M8.55,48.5v5.19c0,0.67-0.7,1.22-1.56,1.22l0,0c-0.86,0-1.56-0.54-1.56-1.22v-4.24"/>
			</g>
		</g>
	</g>
	<g>
		<g>
			<g>
				<path class="st1" d="M38.65,38.3c0,2.09-1.7,3.79-3.79,3.79s-3.79-1.7-3.79-3.79c0-2.09,1.7-3.79,3.79-3.79
					S38.65,36.21,38.65,38.3z"/>
				<path class="st1" d="M28.27,49.64c0-3.72,1.56-6.73,6.73-6.73l0,0c5.17,0,6.73,3.01,6.73,6.73v0.48"/>
				<path class="st1" d="M35,56.5v6.23c0,1-0.81,1.8-1.8,1.8l0,0c-1,0-1.8-0.81-1.8-1.8V48.61"/>
				<path class="st1" d="M38.61,48.61v14.12c0,1-0.81,1.8-1.8,1.8l0,0c-1,0-1.8-0.81-1.8-1.8V56.5"/>
				<path class="st1" d="M41.73,49.46v4.24c0,0.67-0.7,1.22-1.56,1.22l0,0c-0.86,0-1.56-0.54-1.56-1.22V48.5"/>
				<path class="st1" d="M31.39,48.5v5.19c0,0.67-0.7,1.22-1.56,1.22l0,0c-0.86,0-1.56-0.54-1.56-1.22v-4.24"/>
			</g>
		</g>
	</g>
	<g>
		<g>
			<g>
				<path class="st1" d="M61.5,38.3c0,2.09-1.7,3.79-3.79,3.79s-3.79-1.7-3.79-3.79c0-2.09,1.7-3.79,3.79-3.79S61.5,36.21,61.5,38.3
					z"/>
				<path class="st1" d="M51.11,49.64c0-3.72,1.56-6.73,6.73-6.73l0,0c5.17,0,6.73,3.01,6.73,6.73v0.48"/>
				<path class="st1" d="M57.85,56.5v6.23c0,1-0.81,1.8-1.8,1.8l0,0c-1,0-1.8-0.81-1.8-1.8V48.61"/>
				<path class="st1" d="M61.45,48.61v14.12c0,1-0.81,1.8-1.8,1.8l0,0c-1,0-1.8-0.81-1.8-1.8V56.5"/>
				<path class="st1" d="M64.58,49.46v4.24c0,0.67-0.7,1.22-1.56,1.22l0,0c-0.86,0-1.56-0.54-1.56-1.22V48.5"/>
				<path class="st1" d="M54.24,48.5v5.19c0,0.67-0.7,1.22-1.56,1.22l0,0c-0.86,0-1.56-0.54-1.56-1.22v-4.24"/>
			</g>
		</g>
	</g>
</g>
</svg>
