<?xml version="1.0" encoding="utf-8"?>
<!-- Generator: Adobe Illustrator 23.0.1, SVG Export Plug-In . SVG Version: 6.00 Build 0)  -->
<svg version="1.1" id="Layer_1" xmlns="http://www.w3.org/2000/svg" xmlns:xlink="http://www.w3.org/1999/xlink" x="0px" y="0px"
	 viewBox="0 0 70 70" style="enable-background:new 0 0 70 70;" xml:space="preserve">
<style type="text/css">
	.st0{fill:none;stroke:#004EFF;stroke-width:2.2;stroke-linecap:round;stroke-miterlimit:10;}
	.st1{fill:none;stroke:#F88B00;stroke-width:2.2;stroke-linecap:round;stroke-linejoin:round;stroke-miterlimit:10;}
</style>
<g>
	<g>
		<polyline class="st1" points="38.69,29.97 33.82,34.84 31.31,32.32 		"/>
	</g>
	<path class="st1" d="M51.98,32.19c0-9.61-7.98-17.36-17.68-16.97c-8.86,0.35-16.11,7.77-16.28,16.64
		c-0.1,5.36,2.28,10.17,6.08,13.35c0.09,0.08,0.15,0.19,0.15,0.32c0,0.32,0,1.03,0,1.92c0,4.25,3.44,7.7,7.69,7.7h6.13
		c4.25,0,7.69-3.44,7.69-7.69l0-1.5c0-0.4,0.18-0.77,0.48-1.04C49.76,41.81,51.98,37.26,51.98,32.19z"/>
	<circle class="st1" cx="35" cy="32.4" r="10.37"/>
	<line class="st1" x1="27.88" y1="59.41" x2="42.12" y2="59.41"/>
	<line class="st1" x1="27.88" y1="64.02" x2="42.12" y2="64.02"/>
	<line class="st1" x1="32.15" y1="68.63" x2="37.85" y2="68.63"/>
	<g>
		<line class="st1" x1="17.42" y1="47.28" x2="11.55" y2="52.88"/>
		<line class="st1" x1="11.35" y1="30.47" x2="3.61" y2="30.47"/>
		<line class="st1" x1="18" y1="14.62" x2="12.53" y2="9.18"/>
		<line class="st1" x1="35.03" y1="9.06" x2="35.03" y2="1.37"/>
		<line class="st1" x1="53.17" y1="15.69" x2="58.72" y2="10.32"/>
		<line class="st1" x1="58.66" y1="31.31" x2="66.39" y2="31.31"/>
		<line class="st1" x1="52.52" y1="47.28" x2="58.85" y2="53.61"/>
	</g>
</g>
</svg>
