<?xml version="1.0" encoding="utf-8"?>
<!-- Generator: Adobe Illustrator 23.0.1, SVG Export Plug-In . SVG Version: 6.00 Build 0)  -->
<svg version="1.1" id="Layer_1" xmlns="http://www.w3.org/2000/svg" xmlns:xlink="http://www.w3.org/1999/xlink" x="0px" y="0px"
	 viewBox="0 0 70 70" style="enable-background:new 0 0 70 70;" xml:space="preserve">
<style type="text/css">
	.st0{fill:none;stroke:#004EFF;stroke-width:2.2;stroke-linecap:round;stroke-miterlimit:10;}
	.st1{fill:none;stroke:#F88B00;stroke-width:2.2;stroke-linecap:round;stroke-linejoin:round;stroke-miterlimit:10;}
</style>
<g>
	<g>
		<g>
			<path class="st1" d="M40.02,28.88c1.9-1.61,3.1-4.01,3.1-6.69V11.99c0-0.94-0.83-1.71-1.85-1.71l0,0c-1.02,0-1.85,0.76-1.85,1.71
				v4.44c0,1.02,0.83,1.85,1.85,1.85l0,0c1.02,0,1.85-0.83,1.85-1.85v-0.88"/>
			<path class="st1" d="M34.13,25.69c-0.45-3.86-2.29-4.96-3.96-5.27c-0.73-0.14-1.25-0.79-1.25-1.53v-1c0-0.21,0.17-0.38,0.38-0.38
				h2.73c0.89,0,1.62-0.73,1.62-1.62l0,0c0-0.89-0.73-1.62-1.62-1.62h-4.94c-1.25,0-2.26,1.01-2.26,2.26v5.66l0,0
				c0,2.87,1.38,5.42,3.51,7.02"/>
			<path class="st1" d="M40.01,28.88v1.74c0,1.28-1.04,2.31-2.31,2.31h-7.05c-1.28,0-2.31-1.03-2.31-2.31v-1.41"/>
			<path class="st1" d="M32.03,14.26V8.9c0-0.94,0.83-1.71,1.85-1.71l0,0c1.02,0,1.85,0.76,1.85,1.71v7.66
				c0,1.02,0.83,1.85,1.85,1.85l0,0c1.02,0,1.85-0.83,1.85-1.85V9.93c0-0.94-0.83-1.71-1.85-1.71l0,0c-1.02,0-1.85,0.76-1.85,1.71
				v7.33v-0.44c0,1.02-0.83,1.85-1.85,1.85l0,0c-0.87,0-1.65-0.36-1.85-1.17"/>
			<path class="st1" d="M32.03,14.26v-3.53c0-0.94-0.83-1.71-1.85-1.71l0,0c-1.02,0-1.85,0.76-1.85,1.71v3.53"/>
		</g>
	</g>
	<g>
		<g>
			<g>
				<g>
					<path class="st1" d="M54.91,40.57c0,1.99-1.61,3.6-3.6,3.6c-1.99,0-3.6-1.61-3.6-3.6c0-1.99,1.61-3.6,3.6-3.6
						C53.3,36.98,54.91,38.59,54.91,40.57z"/>
					<path class="st1" d="M45.05,51.34c0-3.53,1.48-6.39,6.39-6.39l0,0c4.91,0,6.39,2.86,6.39,6.39v0.46"/>
					<path class="st1" d="M51.44,57.85v8.39c0,0.95-0.77,1.71-1.71,1.71l0,0c-0.95,0-1.71-0.77-1.71-1.71V50.36"/>
					<path class="st1" d="M54.87,50.36v15.88c0,0.95-0.77,1.71-1.71,1.71l0,0c-0.95,0-1.71-0.77-1.71-1.71v-8.39"/>
					<path class="st1" d="M57.83,51.17v4.02c0,0.64-0.66,1.16-1.48,1.16l0,0c-0.82,0-1.48-0.52-1.48-1.16v-4.93"/>
					<path class="st1" d="M48.02,50.26v4.93c0,0.64-0.66,1.16-1.48,1.16l0,0c-0.82,0-1.48-0.52-1.48-1.16v-4.02"/>
				</g>
			</g>
		</g>
		<g>
			<g>
				<g>
					<circle class="st1" cx="17.53" cy="40.57" r="3.6"/>
					<path class="st1" d="M11.27,51.34c0-3.53,1.48-6.39,6.39-6.39l0,0c4.91,0,6.39,2.86,6.39,6.39v0.46"/>
					<path class="st1" d="M17.66,57.85v8.39c0,0.95-0.77,1.71-1.71,1.71l0,0c-0.95,0-1.71-0.77-1.71-1.71V50.36"/>
					<path class="st1" d="M21.08,50.36v15.88c0,0.95-0.77,1.71-1.71,1.71l0,0c-0.95,0-1.71-0.77-1.71-1.71v-8.39"/>
					<path class="st1" d="M24.05,51.17v4.02c0,0.64-0.66,1.16-1.48,1.16l0,0c-0.82,0-1.48-0.52-1.48-1.16v-4.93"/>
					<path class="st1" d="M14.23,50.26v4.93c0,0.64-0.66,1.16-1.48,1.16l0,0c-0.82,0-1.48-0.52-1.48-1.16v-4.02"/>
				</g>
			</g>
		</g>
	</g>
	<polyline class="st1" points="54.74,20.73 62.49,20.73 62.49,40.49 	"/>
	<polyline class="st1" points="15.26,20.73 7.51,20.73 7.51,40.49 	"/>
	<circle class="st1" cx="35" cy="20.27" r="18.23"/>
</g>
</svg>
