<?xml version="1.0" encoding="utf-8"?>
<!-- Generator: Adobe Illustrator 23.0.1, SVG Export Plug-In . SVG Version: 6.00 Build 0)  -->
<svg version="1.1" id="Layer_1" xmlns="http://www.w3.org/2000/svg" xmlns:xlink="http://www.w3.org/1999/xlink" x="0px" y="0px"
	 viewBox="0 0 70 70" style="enable-background:new 0 0 70 70;" xml:space="preserve">
<style type="text/css">
	.st0{fill:none;stroke:#004EFF;stroke-width:2.2;stroke-linecap:round;stroke-miterlimit:10;}
	.st1{fill:none;stroke:#F88B00;stroke-width:2.2;stroke-linecap:round;stroke-linejoin:round;stroke-miterlimit:10;}
</style>
<g>
	<path class="st1" d="M57.09,23.21c3.24,4.48,5.15,9.99,5.15,15.94c0,15.04-12.19,27.24-27.24,27.24
		c-15.04,0-27.24-12.19-27.24-27.24c0-12.97,9.07-23.83,21.21-26.57"/>
	<path class="st1" d="M43.91,24.46c4.96,3.02,8.27,8.47,8.27,14.69c0,9.48-7.71,17.19-17.19,17.19c-9.48,0-17.19-7.71-17.19-17.19
		c0-7.11,4.34-13.22,10.5-15.83"/>
	<path class="st1" d="M39.2,34.83c1.13,1.1,1.83,2.63,1.83,4.32c0,3.33-2.7,6.03-6.03,6.03c-3.33,0-6.03-2.7-6.03-6.03
		c0-1.34,0.44-2.57,1.17-3.58"/>
	<line class="st1" x1="35" y1="39.15" x2="35" y2="3.61"/>
	<polygon class="st1" points="35,6.42 52.65,6.42 48.77,13.41 52.81,20.4 35,20.4 	"/>
</g>
</svg>
