<?xml version="1.0" encoding="utf-8"?>
<!-- Generator: Adobe Illustrator 23.0.1, SVG Export Plug-In . SVG Version: 6.00 Build 0)  -->
<svg version="1.1" id="Layer_1" xmlns="http://www.w3.org/2000/svg" xmlns:xlink="http://www.w3.org/1999/xlink" x="0px" y="0px"
	 viewBox="0 0 70 70" style="enable-background:new 0 0 70 70;" xml:space="preserve">
<style type="text/css">
	.st0{fill:none;stroke:#004EFF;stroke-width:2.2;stroke-linecap:round;stroke-miterlimit:10;}
	.st1{fill:none;stroke:#F88B00;stroke-width:2.2;stroke-linecap:round;stroke-linejoin:round;stroke-miterlimit:10;}
</style>
<g>
	<path class="st1" d="M26.27,42.8l6.17,6.16c1.36,1.36,1.36,3.56,0,4.91l0,0c-1.34,1.34-3.52,1.36-4.88,0.03L11.29,38.1v3.66
		c0,0.98-0.79,1.77-1.77,1.77H4.98c-1.01,0-1.83-0.82-1.83-1.83V19.21c0-1.01,0.82-1.83,1.83-1.83H9.6c0.97,0,1.76,0.79,1.76,1.76
		v0.73h10.02"/>
	<path class="st1" d="M33.44,40.14l6.17,6.24c1.45,1.46,1.26,3.87-0.39,5.1l0,0c-1.35,1-3.23,0.86-4.41-0.33l-8.48-8.51"/>
	<path class="st1" d="M39.69,36.97l5.94,6.24c1.39,1.46,1.22,3.87-0.38,5.1l0,0c-1.3,1-3.11,0.86-4.25-0.33l-8.16-8.51"/>
	<path class="st1" d="M39.59,36.69l8.48,8.51c1.19,1.19,3.06,1.33,4.41,0.33l0,0c1.43-1.06,1.76-3.01,0.89-4.46
		c-0.14-0.23-0.3-0.44-0.5-0.64L34.3,21.88c0,0-2.44,2.29-5.06,0.59c0.03-0.04-0.86,1.34-1.8,2.82c-1.21,1.9-3.73,2.45-5.62,1.22
		l0,0c-1.94-1.26-2.42-3.89-1.07-5.76l2.51-3.46c1.32-1.82,3.65-2.61,5.8-1.95l22.11,6.69c0.11,0.03,0.23,0.03,0.34,0l5.96-1.65
		l0.18-2.3c0.07-0.92,0.84-1.63,1.76-1.63h5.7c0.96,0,1.74,0.78,1.74,1.74v24.54c0,0.96-0.78,1.74-1.74,1.74h-5.8
		c-1.01,0-1.83-0.82-1.83-1.83v-1.89h-4.6"/>
	<line class="st1" x1="57.48" y1="20.37" x2="57.48" y2="41.44"/>
	<line class="st1" x1="11.37" y1="19.51" x2="11.37" y2="38.65"/>
</g>
</svg>
