<?xml version="1.0" encoding="utf-8"?>
<!-- Generator: Adobe Illustrator 23.0.1, SVG Export Plug-In . SVG Version: 6.00 Build 0)  -->
<svg version="1.1" id="Layer_1" xmlns="http://www.w3.org/2000/svg" xmlns:xlink="http://www.w3.org/1999/xlink" x="0px" y="0px"
	 viewBox="0 0 70 70" style="enable-background:new 0 0 70 70;" xml:space="preserve">
<style type="text/css">
	.st0{fill:none;stroke:#004EFF;stroke-width:2.2;stroke-linecap:round;stroke-miterlimit:10;}
	.st1{fill:none;stroke:#F88B00;stroke-width:2.2;stroke-linecap:round;stroke-linejoin:round;stroke-miterlimit:10;}
</style>
<g>
	<g>
		<path class="st1" d="M38.27,16.65l2.75,5.57l6.08,0.88c0.33,0.05,0.47,0.46,0.22,0.69l-4.4,4.29l1.04,6.06
			c0.06,0.33-0.29,0.58-0.59,0.43l-5.44-2.86l-5.44,2.86c-0.3,0.16-0.65-0.1-0.59-0.43l1.04-6.06l-4.4-4.29
			c-0.24-0.23-0.11-0.64,0.22-0.69l6.08-0.88l2.75-5.57C37.74,16.37,38.14,16.37,38.27,16.65z"/>
		<g>
			<line class="st1" x1="22.99" y1="26.12" x2="18.1" y2="26.12"/>
			<line class="st1" x1="27.19" y1="16.1" x2="23.73" y2="12.66"/>
			<line class="st1" x1="37.96" y1="12.58" x2="37.96" y2="7.72"/>
			<line class="st1" x1="49.42" y1="16.78" x2="52.93" y2="13.39"/>
			<line class="st1" x1="52.9" y1="26.65" x2="57.78" y2="26.65"/>
		</g>
	</g>
	<g>
		<rect x="5.72" y="39.13" class="st1" width="12.38" height="23.14"/>
		<path class="st1" d="M18.1,40.97l5.5-1.4c2.54-0.65,5.21-0.57,7.71,0.22l8.34,3c2.27,0.69,3.56,3.06,2.91,5.34l0,0
			c-0.56,1.97-2.59,3.01-4.63,2.86l-5.93-1.66l5.93,2.56c0.4,0.19,0.86,0.19,1.25-0.02l20.12-9.45c1.73-0.85,3.83-0.12,4.66,1.63
			l0,0c0.73,1.56,0.21,3.42-1.23,4.36L45.53,59.69c-2.56,1.68-5.6,2.44-8.65,2.18L18.1,60.22"/>
		<line class="st1" x1="34.08" y1="50.24" x2="29.15" y2="48.42"/>
	</g>
</g>
</svg>
