<?xml version="1.0" encoding="utf-8"?>
<!-- Generator: Adobe Illustrator 23.0.1, SVG Export Plug-In . SVG Version: 6.00 Build 0)  -->
<svg version="1.1" id="Layer_1" xmlns="http://www.w3.org/2000/svg" xmlns:xlink="http://www.w3.org/1999/xlink" x="0px" y="0px"
	 viewBox="0 0 200 160" style="enable-background:new 0 0 200 160;" xml:space="preserve">
<style type="text/css">
	.st0{fill:none;stroke:#004EFF;stroke-width:2.2;stroke-linecap:round;stroke-miterlimit:10;}
	.st1{fill:none;stroke:#F88B00;stroke-width:2.2;stroke-linecap:round;stroke-linejoin:round;stroke-miterlimit:10;}
	.st2{fill:none;stroke:#F88B00;stroke-width:2.6597;stroke-linecap:round;stroke-miterlimit:10;}
	.st3{fill:none;stroke:#F88B00;stroke-width:2.5;stroke-linecap:round;stroke-linejoin:round;stroke-miterlimit:10;}
	.st4{fill:none;stroke:#F88B00;stroke-width:2.5;stroke-linecap:round;stroke-miterlimit:10;}
	.st5{fill:none;stroke:#004EFF;stroke-width:2.5;stroke-linecap:round;stroke-linejoin:round;stroke-miterlimit:10;}
	.st6{fill:#F88B00;}
	.st7{fill:none;stroke:#004EFF;stroke-width:2.5;stroke-linecap:round;stroke-miterlimit:10;}
</style>
<g>
	<g>
		<g>
			
				<ellipse transform="matrix(0.7071 -0.7071 0.7071 0.7071 9.2492 79.0116)" class="st7" cx="100" cy="28.34" rx="18.23" ry="18.23"/>
			<path class="st7" d="M74.07,23.69c0,19.85,0,26.85,24.89,26.85l0,0c24.89,0,26.96-3.96,26.96-26.85"/>
			<path class="st7" d="M125.93,23.69V7.91c0-3.24,3.37-5.86,7.52-5.86l0,0c4.15,0,7.52,2.62,7.52,5.86V28.3v11.15
				c0,10.92-6.76,20.71-16.98,24.56l-7.65,2.89v82.37c0,4.8-3.89,8.69-8.69,8.69l0,0c-4.8,0-8.69-3.89-8.69-8.69v-37.94"/>
			<path class="st7" d="M74.07,23.69V7.91c0-3.24-3.37-5.86-7.52-5.86l0,0c-4.15,0-7.52,2.62-7.52,5.86l0.44,30.35
				c0.16,10.95,6.14,20.98,15.7,26.32l6.42,3.59v81.1c0,4.8,3.89,8.69,8.69,8.69l0,0c4.8,0,8.69-3.89,8.69-8.69v-37.94"/>
		</g>
	</g>
	<g>
		<g>
			<circle class="st7" cx="163.2" cy="57.49" r="14.13"/>
			<path class="st7" d="M138.59,99.81c0-13.87,5.83-25.12,25.12-25.12l0,0c19.29,0,20.9-3.07,20.9-20.81"/>
			<path class="st7" d="M163.71,121.81v29.41c0,3.72-3.01,6.73-6.73,6.73l0,0c-3.72,0-6.73-3.01-6.73-6.73V95.96"/>
			<path class="st7" d="M184.61,53.88V41.65c0-2.51,2.61-4.54,5.83-4.54l0,0c3.22,0,5.83,2.03,5.83,4.54v15.81v8.64
				c0,8.47-5.24,16.05-13.16,19.04l-5.93,2.24v63.84c0,3.72-3.01,6.73-6.73,6.73l0,0c-3.72,0-6.73-3.01-6.73-6.73v-29.41"/>
			<path class="st7" d="M150.25,95.56v15.81c0,2.51-2.61,4.54-5.83,4.54l0,0c-3.22,0-5.83-2.03-5.83-4.54V99.13"/>
		</g>
	</g>
	<g>
		<g>
			<circle class="st7" cx="36.8" cy="57.49" r="14.13"/>
			<path class="st7" d="M61.41,99.81c0-13.87-5.83-25.12-25.12-25.12l0,0c-19.29,0-20.9-3.07-20.9-20.81"/>
			<path class="st7" d="M36.29,121.81v29.41c0,3.72,3.01,6.73,6.73,6.73l0,0c3.72,0,6.73-3.01,6.73-6.73V95.96"/>
			<path class="st7" d="M15.39,53.88V41.65c0-2.51-2.61-4.54-5.83-4.54l0,0c-3.22,0-5.83,2.03-5.83,4.54v15.81v8.64
				c0,8.47,5.24,16.05,13.16,19.04l5.93,2.24v63.84c0,3.72,3.01,6.73,6.73,6.73l0,0c3.72,0,6.73-3.01,6.73-6.73v-29.41"/>
			<path class="st7" d="M49.75,95.56v15.81c0,2.51,2.61,4.54,5.83,4.54l0,0c3.22,0,5.83-2.03,5.83-4.54V99.13"/>
		</g>
	</g>
</g>
</svg>
