<?xml version="1.0" encoding="utf-8"?>
<!-- Generator: Adobe Illustrator 23.0.1, SVG Export Plug-In . SVG Version: 6.00 Build 0)  -->
<svg version="1.1" id="Layer_1" xmlns="http://www.w3.org/2000/svg" xmlns:xlink="http://www.w3.org/1999/xlink" x="0px" y="0px"
	 viewBox="0 0 70 70" style="enable-background:new 0 0 70 70;" xml:space="preserve">
<style type="text/css">
	.st0{fill:none;stroke:#004EFF;stroke-width:2.2;stroke-linecap:round;stroke-miterlimit:10;}
	.st1{fill:none;stroke:#F88B00;stroke-width:2.2;stroke-linecap:round;stroke-linejoin:round;stroke-miterlimit:10;}
	.st2{fill:none;stroke:#F88B00;stroke-width:2.6597;stroke-linecap:round;stroke-miterlimit:10;}
</style>
<g>
	<path class="st2" d="M17.84,40.13l-6.77,5.95c-0.57,0.49-1.45,0.08-1.45-0.67v-27.7c0-2.54,2.06-4.61,4.61-4.61h29.32
		c2.54,0,4.61,2.06,4.61,4.61v16.83c0,2.54-2.06,4.61-4.61,4.61H28.07"/>
	<path class="st2" d="M44.75,26.65H27.27c-2.51,0-4.55,2.04-4.55,4.55v16.95c0,2.51,2.04,4.55,4.55,4.55h24.45l8.08,6.93
		c0.57,0.49,1.45,0.08,1.45-0.67V31.19c0-2.51-2.04-4.55-4.55-4.55h-4.24"/>
</g>
</svg>
