<?xml version="1.0" encoding="utf-8"?>
<!-- Generator: Adobe Illustrator 23.0.1, SVG Export Plug-In . SVG Version: 6.00 Build 0)  -->
<svg version="1.1" id="Layer_1" xmlns="http://www.w3.org/2000/svg" xmlns:xlink="http://www.w3.org/1999/xlink" x="0px" y="0px"
	 viewBox="0 0 120 140" style="enable-background:new 0 0 120 140;" xml:space="preserve">
<style type="text/css">
	.st0{fill:none;stroke:#004EFF;stroke-width:2.2;stroke-linecap:round;stroke-miterlimit:10;}
	.st1{fill:none;stroke:#F88B00;stroke-width:2.2;stroke-linecap:round;stroke-linejoin:round;stroke-miterlimit:10;}
	.st2{fill:none;stroke:#F88B00;stroke-width:2.6597;stroke-linecap:round;stroke-miterlimit:10;}
	.st3{fill:none;stroke:#F88B00;stroke-width:2.5;stroke-linecap:round;stroke-linejoin:round;stroke-miterlimit:10;}
	.st4{fill:none;stroke:#F88B00;stroke-width:2.5;stroke-linecap:round;stroke-miterlimit:10;}
	.st5{fill:none;stroke:#004EFF;stroke-width:2.5;stroke-linecap:round;stroke-linejoin:round;stroke-miterlimit:10;}
</style>
<g>
	<g>
		<polyline class="st3" points="11.79,67.61 18.27,72.87 24.75,78.12 18.27,83.37 11.79,88.63 		"/>
		<line class="st3" x1="24.75" y1="78.12" x2="1.94" y2="78.12"/>
	</g>
	<g>
		<polyline class="st3" points="108.21,67.61 101.73,72.87 95.25,78.12 101.73,83.37 108.21,88.63 		"/>
		<line class="st3" x1="95.25" y1="78.12" x2="118.06" y2="78.12"/>
	</g>
	<g>
		<g>
			<g>
				<circle class="st4" cx="60.23" cy="19.81" r="15.18"/>
				<path class="st4" d="M33.8,65.26c0-14.9,6.26-26.98,26.98-26.98l0,0c20.72,0,26.98,12.08,26.98,26.98v1.93"/>
				<path class="st4" d="M60.78,92.72v35.42c0,3.99-3.24,7.23-7.23,7.23h0c-3.99,0-7.23-3.24-7.23-7.23V61.11"/>
				<path class="st4" d="M75.24,61.11v67.03c0,3.99-3.24,7.23-7.23,7.23l0,0c-3.99,0-7.23-3.24-7.23-7.23V92.72"/>
				<path class="st4" d="M87.76,64.53V81.5c0,2.69-2.8,4.88-6.26,4.88l0,0c-3.46,0-6.26-2.18-6.26-4.88V60.69"/>
				<path class="st4" d="M46.32,60.69V81.5c0,2.69-2.8,4.88-6.26,4.88l0,0c-3.46,0-6.26-2.18-6.26-4.88V64.53"/>
			</g>
		</g>
	</g>
</g>
</svg>
