<?xml version="1.0" encoding="utf-8"?>
<!-- Generator: Adobe Illustrator 23.0.1, SVG Export Plug-In . SVG Version: 6.00 Build 0)  -->
<svg version="1.1" id="Layer_1" xmlns="http://www.w3.org/2000/svg" xmlns:xlink="http://www.w3.org/1999/xlink" x="0px" y="0px"
	 viewBox="0 0 65 65" style="enable-background:new 0 0 65 65;" xml:space="preserve">
<style type="text/css">
	.st0{fill:none;stroke:#004EFF;stroke-width:2.2;stroke-linecap:round;stroke-miterlimit:10;}
	.st1{fill:none;stroke:#F88B00;stroke-width:2.2;stroke-linecap:round;stroke-linejoin:round;stroke-miterlimit:10;}
	.st2{fill:none;stroke:#F88B00;stroke-width:2.6597;stroke-linecap:round;stroke-miterlimit:10;}
	.st3{fill:none;stroke:#F88B00;stroke-width:2.5;stroke-linecap:round;stroke-linejoin:round;stroke-miterlimit:10;}
	.st4{fill:none;stroke:#F88B00;stroke-width:2.5;stroke-linecap:round;stroke-miterlimit:10;}
	.st5{fill:none;stroke:#004EFF;stroke-width:2.5;stroke-linecap:round;stroke-linejoin:round;stroke-miterlimit:10;}
	.st6{fill:#F88B00;}
	.st7{fill:none;stroke:#004EFF;stroke-width:2.5;stroke-linecap:round;stroke-miterlimit:10;}
	.st8{fill:#4D4D4F;}
	.st9{fill:#0077BF;}
	.st10{fill-rule:evenodd;clip-rule:evenodd;fill:#F56F02;}
	.st11{fill-rule:evenodd;clip-rule:evenodd;fill:#231F20;}
	.st12{fill:#F56F02;}
	.st13{fill:#808080;}
</style>
<g>
	<g>
		<g>
			<g>
				<path class="st3" d="M26.79,23.89c-0.69-0.25-1.44-0.05-1.93,0.45c-0.5,0.49-0.69,1.24-0.45,1.93l8.91,26.78
					c0.45,1.34,2.28,1.44,2.92,0.2l5.45-11.34c0.15-0.3,0.4-0.59,0.74-0.74l11.34-5.45c1.29-0.59,1.14-2.48-0.2-2.92L26.79,23.89z"
					/>
			</g>
		</g>
		<path class="st3" d="M18.86,37.68c-5.17-2.19-8.52-7.23-8.52-12.85c0-7.69,6.26-13.95,13.95-13.95c5.55,0,10.56,3.28,12.78,8.37"
			/>
		<path class="st3" d="M21.17,33.15c-3.13-1.33-5.33-4.43-5.33-8.04c0-4.82,3.91-8.73,8.73-8.73c3.58,0,6.66,2.16,8,5.24"/>
	</g>
</g>
</svg>
