<?xml version="1.0" encoding="utf-8"?>
<!-- Generator: Adobe Illustrator 23.0.1, SVG Export Plug-In . SVG Version: 6.00 Build 0)  -->
<svg version="1.1" id="Layer_1" xmlns="http://www.w3.org/2000/svg" xmlns:xlink="http://www.w3.org/1999/xlink" x="0px" y="0px"
	 viewBox="0 0 70 70" style="enable-background:new 0 0 70 70;" xml:space="preserve">
<style type="text/css">
	.st0{fill:none;stroke:#004EFF;stroke-width:2.2;stroke-linecap:round;stroke-miterlimit:10;}
	.st1{fill:none;stroke:#F88B00;stroke-width:2.2;stroke-linecap:round;stroke-linejoin:round;stroke-miterlimit:10;}
</style>
<g>
	<g>
		<path class="st0" d="M47.08,15.15c0,6.67-5.41,12.08-12.08,12.08s-12.08-5.41-12.08-12.08c0-6.67,5.41-12.08,12.08-12.08
			S47.08,8.48,47.08,15.15z"/>
		<path class="st0" d="M16.22,37.63C20.42,31.37,27.61,27.22,35,27.22c7.05,0,14.1,3.95,18.4,9.95"/>
		<path class="st0" d="M56.26,42.53c0.84,2.28,1.31,4.72,1.31,7.27v3.17c0,3.6-2.91,6.51-6.51,6.51H18.94
			c-3.6,0-6.51-2.91-6.51-6.51v-3.17c0-2.56,0.47-5.03,1.31-7.32"/>
		<path class="st0" d="M51.11,59.47H18.89c-1.13,0-2.09-0.8-2.3-1.91l-3.23-17.15c-0.27-1.44,0.83-2.78,2.3-2.78h38.68
			c1.47,0,2.57,1.33,2.3,2.78l-3.23,17.15C53.2,58.67,52.24,59.47,51.11,59.47z"/>
		<path class="st0" d="M6.07,66.93v-5.28c0-1.2,0.98-2.18,2.18-2.18h53.5c1.2,0,2.18,0.98,2.18,2.18v5.28"/>
	</g>
</g>
</svg>
