<?xml version="1.0" encoding="utf-8"?>
<!-- Generator: Adobe Illustrator 23.0.1, SVG Export Plug-In . SVG Version: 6.00 Build 0)  -->
<svg version="1.1" id="Layer_1" xmlns="http://www.w3.org/2000/svg" xmlns:xlink="http://www.w3.org/1999/xlink" x="0px" y="0px"
	 viewBox="0 0 106 15" style="enable-background:new 0 0 106 15;" xml:space="preserve">
<style type="text/css">
	.st0{fill:none;stroke:#004EFF;stroke-width:2.2;stroke-linecap:round;stroke-miterlimit:10;}
	.st1{fill:none;stroke:#F88B00;stroke-width:2.2;stroke-linecap:round;stroke-linejoin:round;stroke-miterlimit:10;}
	.st2{fill:none;stroke:#F88B00;stroke-width:2.6597;stroke-linecap:round;stroke-miterlimit:10;}
	.st3{fill:none;stroke:#F88B00;stroke-width:2.5;stroke-linecap:round;stroke-linejoin:round;stroke-miterlimit:10;}
	.st4{fill:none;stroke:#F88B00;stroke-width:2.5;stroke-linecap:round;stroke-miterlimit:10;}
	.st5{fill:none;stroke:#004EFF;stroke-width:2.5;stroke-linecap:round;stroke-linejoin:round;stroke-miterlimit:10;}
	.st6{fill:#F88B00;}
	.st7{fill:none;stroke:#004EFF;stroke-width:2.5;stroke-linecap:round;stroke-miterlimit:10;}
	.st8{fill:#4D4D4F;}
	.st9{fill:#0077BF;}
	.st10{fill-rule:evenodd;clip-rule:evenodd;fill:#F56F02;}
	.st11{fill-rule:evenodd;clip-rule:evenodd;fill:#231F20;}
	.st12{fill:#F56F02;}
	.st13{fill:#808080;}
	.st14{fill-rule:evenodd;clip-rule:evenodd;fill:#F37021;}
	.st15{fill:#005CB9;}
	.st16{fill:none;stroke:#414042;stroke-width:0.4098;stroke-miterlimit:10;}
</style>
<g>
	<g>
		<g>
			<g>
				<polygon class="st14" points="41.52,4.28 41.52,5.69 44.27,5.69 44.27,13.04 46.27,13.04 46.27,5.69 49.02,5.69 49.02,4.28 				
					"/>
				<path class="st14" d="M51.32,13.04V8.49c0.3-0.29,0.9-0.66,1.69-0.66c0.61,0,0.93,0.27,0.93,1.11v4.09h1.8V8.73
					c0-1.28-0.72-2.11-2.24-2.11c-0.89,0-1.63,0.41-2.18,0.8V4.29h-1.8v8.74H51.32z"/>
				<path class="st14" d="M62.48,13.04c-0.11-0.28-0.15-0.59-0.15-0.91V9.16c0-1.89-0.87-2.5-2.91-2.54
					c-1.1-0.02-2.36,0.48-2.82,1.15l1.16,0.74c0.35-0.4,0.81-0.77,1.66-0.77c0.64,0,1.1,0.26,1.1,0.75v0.53
					c-2.93,0.29-4.33,1.04-4.33,2.47c0,0.86,0.68,1.67,2.05,1.67c0.95,0,1.63-0.26,2.36-0.67l0.12,0.55H62.48z M60.53,11.38
					c-0.38,0.27-1.09,0.66-1.66,0.66c-0.51,0-0.87-0.27-0.87-0.74c0-0.88,1.32-1.09,2.53-1.28V11.38z"/>
				<path class="st14" d="M65.21,13.04V8.49c0.31-0.29,0.9-0.66,1.69-0.66c0.61,0,0.93,0.27,0.93,1.11v4.09h1.8V8.73
					c0-1.28-0.73-2.11-2.24-2.11c-0.88,0-1.65,0.41-2.32,0.8V6.74h-1.66v6.3H65.21z"/>
				<path class="st14" d="M76.37,13.04c-0.12-0.28-0.15-0.59-0.15-0.91V9.16c0-1.89-0.87-2.5-2.91-2.54
					c-1.1-0.02-2.35,0.48-2.82,1.15l1.16,0.74c0.35-0.4,0.81-0.77,1.66-0.77c0.64,0,1.1,0.26,1.1,0.75v0.53
					c-2.93,0.29-4.33,1.04-4.33,2.47c0,0.86,0.68,1.67,2.05,1.67c0.95,0,1.63-0.26,2.35-0.67l0.12,0.55H76.37z M74.42,11.38
					c-0.38,0.27-1.09,0.66-1.65,0.66c-0.51,0-0.87-0.27-0.87-0.74c0-0.88,1.32-1.09,2.53-1.28V11.38z"/>
				<path class="st14" d="M82.98,8.3c-0.42-1.05-1.56-1.68-2.98-1.68c-2.05,0-3.28,1.27-3.28,3.27c0,2,1.23,3.27,3.28,3.27
					c1.38,0.01,2.29-0.45,3.02-1.57l-1.37-0.64c-0.36,0.56-0.81,1.01-1.6,1.01c-1.06,0-1.54-0.65-1.54-2.06
					c0-1.4,0.48-2.06,1.48-2.06c0.87,0,1.19,0.42,1.48,0.95L82.98,8.3z"/>
				<path class="st14" d="M85.65,13.04V8.49c0.31-0.29,0.9-0.66,1.69-0.66c0.61,0,0.93,0.27,0.93,1.11v4.09h1.8V8.73
					c0-1.28-0.72-2.11-2.24-2.11c-0.88,0-1.62,0.41-2.18,0.8V4.29h-1.8v8.74H85.65z"/>
				<path class="st14" d="M96.81,13.04c-0.12-0.28-0.14-0.59-0.14-0.91V9.16c0-1.89-0.87-2.5-2.91-2.54
					c-1.1-0.02-2.35,0.48-2.82,1.15l1.16,0.74c0.35-0.4,0.81-0.77,1.66-0.77c0.64,0,1.11,0.26,1.11,0.75v0.53
					c-2.94,0.29-4.33,1.04-4.33,2.47c0,0.86,0.68,1.67,2.05,1.67c0.95,0,1.63-0.26,2.35-0.67l0.12,0.55H96.81z M94.86,11.38
					c-0.38,0.27-1.09,0.66-1.66,0.66c-0.51,0-0.87-0.27-0.87-0.74c0-0.88,1.32-1.09,2.53-1.28V11.38z"/>
				<path class="st14" d="M99.43,13.04V9.21c0-0.16,0.78-1.02,1.69-1.02c0.13,0,0.23,0,0.32,0.01V6.62
					c-1.08,0.02-1.69,0.45-2.12,1.2h-0.03V6.74h-1.65v6.3H99.43z"/>
				<path class="st14" d="M101.67,6.74v1.21h1.05v3.75c0,0.9,0.52,1.45,1.86,1.45c0.49,0,0.93-0.05,1.42-0.1v-1.23
					c-0.26,0.05-0.55,0.12-0.83,0.12c-0.45,0-0.65-0.1-0.65-0.44V7.95H106V6.74h-1.48V4.66h-1.8v2.08H101.67z"/>
			</g>
		</g>
	</g>
	<g>
		<path class="st15" d="M11.51,1.59c0-0.78-0.64-1.41-1.42-1.41c-0.78,0-1.42,0.63-1.42,1.41C8.67,2.37,9.31,3,10.09,3
			C10.87,3,11.51,2.37,11.51,1.59"/>
		<path class="st15" d="M18.52,1.59c0-0.78-0.64-1.41-1.42-1.41c-0.78,0-1.42,0.63-1.42,1.41C15.68,2.37,16.31,3,17.1,3
			C17.88,3,18.52,2.37,18.52,1.59"/>
		<polygon class="st15" points="0,5.82 0,4.18 7.4,4.18 7.4,5.82 4.68,5.82 4.68,13.05 2.72,13.05 2.72,5.82 		"/>
		<path class="st15" d="M23.92,11.53c0.19,0,0.36-0.02,0.54-0.06c0.17-0.04,0.32-0.1,0.45-0.19c0.13-0.09,0.23-0.21,0.31-0.36
			c0.08-0.15,0.12-0.34,0.12-0.57c0-0.46-0.13-0.78-0.38-0.98c-0.25-0.2-0.59-0.29-1-0.29h-2.08v2.44H23.92 M23.81,7.76
			c0.34,0,0.62-0.08,0.84-0.25c0.22-0.16,0.33-0.43,0.33-0.81c0-0.21-0.03-0.37-0.11-0.51c-0.07-0.13-0.17-0.24-0.29-0.31
			c-0.12-0.07-0.27-0.13-0.42-0.15C24,5.7,23.84,5.69,23.67,5.69h-1.8v2.07H23.81z M24.05,4.18c0.41,0,0.79,0.04,1.13,0.11
			c0.34,0.07,0.63,0.2,0.88,0.37c0.24,0.17,0.43,0.4,0.56,0.68c0.13,0.28,0.2,0.63,0.2,1.04c0,0.45-0.1,0.82-0.3,1.12
			c-0.19,0.3-0.49,0.54-0.88,0.73c0.53,0.16,0.93,0.43,1.19,0.82c0.26,0.39,0.4,0.87,0.4,1.42c0,0.45-0.08,0.84-0.25,1.16
			c-0.17,0.33-0.4,0.6-0.69,0.8c-0.29,0.21-0.62,0.36-0.99,0.46c-0.37,0.1-0.75,0.15-1.14,0.15h-4.21V4.18H24.05z"/>
		<polygon class="st15" points="11.55,4.18 13.64,10.28 13.66,10.28 15.64,4.18 18.47,4.18 18.47,13.05 16.51,13.05 16.51,6.76 
			16.52,6.76 14.35,13.05 12.83,13.05 10.7,6.82 10.68,6.82 10.68,13.05 8.71,13.05 8.71,4.18 		"/>
	</g>
	<line class="st16" x1="34.39" y1="0.11" x2="34.39" y2="14.89"/>
</g>
</svg>
