<?xml version="1.0" encoding="utf-8"?>
<!-- Generator: Adobe Illustrator 23.0.1, SVG Export Plug-In . SVG Version: 6.00 Build 0)  -->
<svg version="1.1" id="Layer_1" xmlns="http://www.w3.org/2000/svg" xmlns:xlink="http://www.w3.org/1999/xlink" x="0px" y="0px"
	 viewBox="0 0 300 150" style="enable-background:new 0 0 300 150;" xml:space="preserve">
<style type="text/css">
	.st0{fill:none;stroke:#004EFF;stroke-width:2.2;stroke-linecap:round;stroke-miterlimit:10;}
	.st1{fill:none;stroke:#F88B00;stroke-width:2.2;stroke-linecap:round;stroke-linejoin:round;stroke-miterlimit:10;}
	.st2{fill:none;stroke:#F88B00;stroke-width:2.6597;stroke-linecap:round;stroke-miterlimit:10;}
	.st3{fill:none;stroke:#F88B00;stroke-width:2.5;stroke-linecap:round;stroke-linejoin:round;stroke-miterlimit:10;}
	.st4{fill:none;stroke:#F88B00;stroke-width:2.5;stroke-linecap:round;stroke-miterlimit:10;}
	.st5{fill:none;stroke:#004EFF;stroke-width:2.5;stroke-linecap:round;stroke-linejoin:round;stroke-miterlimit:10;}
	.st6{fill:#F88B00;}
	.st7{fill:none;stroke:#004EFF;stroke-width:2.5;stroke-linecap:round;stroke-miterlimit:10;}
	.st8{fill:#4D4D4F;}
	.st9{fill:#0077BF;}
	.st10{fill-rule:evenodd;clip-rule:evenodd;fill:#F56F02;}
	.st11{fill-rule:evenodd;clip-rule:evenodd;fill:#231F20;}
	.st12{fill:#F56F02;}
	.st13{fill:#808080;}
</style>
<g>
	<g>
		<path class="st8" d="M25.8,115.55v26h-3.25v-21.48l-6.95,21.48h-2.68l-6.95-21.53v21.53H2.69v-26h4.65l6.86,21.68l6.91-21.68H25.8
			z"/>
		<path class="st8" d="M45.36,141.34c-0.27,0.21-0.57,0.37-0.9,0.47c-0.34,0.11-0.72,0.16-1.16,0.16c-0.35,0-0.68-0.06-0.97-0.18
			c-0.3-0.12-0.55-0.3-0.77-0.55c-0.22-0.24-0.39-0.55-0.51-0.92c-0.13-0.37-0.19-0.8-0.19-1.29c-0.33,0.49-0.7,0.93-1.13,1.29
			c-0.43,0.37-0.89,0.67-1.39,0.92c-0.5,0.24-1.02,0.43-1.57,0.55c-0.55,0.12-1.1,0.18-1.66,0.18c-0.77,0-1.5-0.1-2.18-0.29
			c-0.68-0.2-1.27-0.51-1.79-0.94c-0.51-0.43-0.91-0.98-1.21-1.65c-0.3-0.67-0.44-1.49-0.44-2.45c0-0.73,0.07-1.36,0.22-1.9
			c0.15-0.54,0.35-1,0.61-1.39c0.26-0.39,0.56-0.72,0.92-0.98c0.36-0.26,0.74-0.49,1.15-0.67c0.41-0.18,0.85-0.34,1.31-0.46
			c0.46-0.13,0.93-0.24,1.4-0.34c0.34-0.08,0.72-0.15,1.13-0.22c0.41-0.07,0.82-0.15,1.23-0.23c0.41-0.08,0.81-0.18,1.19-0.29
			c0.39-0.11,0.73-0.26,1.02-0.43c0.3-0.17,0.53-0.39,0.71-0.64c0.18-0.25,0.27-0.56,0.27-0.91c0-0.65-0.11-1.17-0.32-1.57
			c-0.21-0.4-0.49-0.71-0.83-0.92c-0.34-0.22-0.73-0.36-1.16-0.44c-0.43-0.07-0.86-0.11-1.29-0.11c-0.56,0-1.08,0.05-1.56,0.16
			c-0.48,0.11-0.89,0.3-1.24,0.57c-0.35,0.27-0.62,0.64-0.83,1.1c-0.21,0.46-0.32,1.05-0.35,1.75h-2.97
			c0.03-1.2,0.25-2.21,0.64-3.04c0.4-0.83,0.92-1.5,1.58-2.02c0.66-0.52,1.41-0.89,2.26-1.11c0.85-0.23,1.75-0.34,2.7-0.34
			c0.5,0,1,0.03,1.52,0.08c0.51,0.05,1,0.15,1.47,0.29c0.47,0.14,0.91,0.34,1.31,0.59c0.41,0.25,0.76,0.57,1.07,0.96
			c0.3,0.39,0.54,0.86,0.71,1.41c0.17,0.55,0.26,1.2,0.26,1.94v9.59c0,0.35,0,0.64,0.01,0.89c0,0.25,0.03,0.45,0.07,0.61
			c0.04,0.16,0.12,0.28,0.22,0.35c0.11,0.07,0.26,0.11,0.46,0.11c0.1,0,0.23-0.02,0.39-0.05c0.16-0.03,0.35-0.1,0.57-0.21V141.34z
			 M35.73,139.04c0.89,0,1.65-0.13,2.27-0.4c0.62-0.27,1.13-0.6,1.53-1.01c0.39-0.4,0.68-0.85,0.87-1.33
			c0.18-0.48,0.28-0.93,0.28-1.36v-3.08c-0.24,0.18-0.54,0.33-0.9,0.45c-0.36,0.12-0.75,0.22-1.18,0.31
			c-0.43,0.09-0.87,0.17-1.33,0.25c-0.46,0.08-0.92,0.17-1.36,0.28c-0.44,0.11-0.87,0.25-1.28,0.41c-0.41,0.16-0.76,0.37-1.07,0.62
			c-0.3,0.25-0.55,0.56-0.73,0.93c-0.18,0.37-0.27,0.81-0.27,1.33c0,0.49,0.09,0.91,0.26,1.24c0.17,0.33,0.4,0.6,0.7,0.8
			c0.29,0.2,0.63,0.35,1.01,0.44C34.91,139,35.31,139.04,35.73,139.04z"/>
		<path class="st8" d="M50.78,115.55v15.13l7.53-8.04h3.89l-6.77,6.92l7.2,11.99h-3.75l-5.7-9.64l-2.4,2.45v7.19h-2.93v-26H50.78z"
			/>
		<path class="st8" d="M79.03,135.42c-0.18,1.07-0.48,2.01-0.9,2.82c-0.42,0.82-0.94,1.5-1.57,2.06c-0.62,0.56-1.34,0.97-2.14,1.26
			c-0.8,0.28-1.68,0.42-2.62,0.42c-1.36,0-2.54-0.25-3.54-0.74c-1-0.49-1.83-1.18-2.5-2.07c-0.67-0.88-1.17-1.94-1.51-3.15
			c-0.34-1.22-0.53-2.55-0.57-4c0-1.41,0.19-2.72,0.57-3.92c0.38-1.2,0.92-2.23,1.62-3.1c0.7-0.87,1.53-1.55,2.51-2.05
			c0.97-0.49,2.04-0.74,3.21-0.74c1.02,0,1.92,0.17,2.7,0.49c0.78,0.33,1.46,0.77,2.03,1.33c0.57,0.56,1.05,1.2,1.44,1.93
			c0.39,0.73,0.69,1.5,0.92,2.3c0.23,0.81,0.38,1.62,0.47,2.45c0.09,0.83,0.13,1.62,0.11,2.36H66.75c0,0.82,0.1,1.58,0.31,2.3
			c0.21,0.72,0.52,1.35,0.95,1.89c0.43,0.54,0.96,0.97,1.6,1.29c0.64,0.32,1.4,0.47,2.28,0.47c0.52,0,1.01-0.07,1.47-0.21
			c0.46-0.14,0.87-0.36,1.24-0.66c0.37-0.29,0.68-0.67,0.95-1.13c0.27-0.46,0.47-0.99,0.61-1.62H79.03z M71.46,125.13
			c-0.69,0-1.32,0.13-1.88,0.4c-0.56,0.27-1.04,0.63-1.44,1.09c-0.4,0.46-0.72,1-0.96,1.61c-0.24,0.62-0.38,1.27-0.43,1.96h9.4
			c-0.05-0.71-0.19-1.37-0.44-1.99c-0.25-0.62-0.58-1.15-0.99-1.61c-0.41-0.46-0.89-0.82-1.45-1.08
			C72.72,125.27,72.12,125.13,71.46,125.13z"/>
		<path class="st8" d="M101.71,115.55c1.23,0,2.34,0.17,3.31,0.51c0.97,0.34,1.79,0.82,2.46,1.45c0.67,0.63,1.18,1.4,1.53,2.31
			c0.35,0.91,0.53,1.94,0.53,3.08c0,0.65-0.04,1.27-0.11,1.85c-0.07,0.59-0.2,1.13-0.38,1.64c-0.18,0.51-0.42,0.97-0.73,1.4
			c-0.3,0.43-0.68,0.8-1.14,1.13c0.35,0.29,0.64,0.62,0.85,0.98c0.22,0.36,0.39,0.74,0.53,1.15c0.13,0.41,0.24,0.85,0.31,1.3
			c0.07,0.46,0.13,0.93,0.18,1.42c0.03,0.75,0.05,1.46,0.07,2.15c0.02,0.69,0.08,1.36,0.18,2c0.11,0.64,0.28,1.26,0.52,1.87
			c0.24,0.6,0.61,1.19,1.1,1.76h-5.42c-0.35-0.47-0.6-0.96-0.76-1.49c-0.16-0.52-0.27-1.07-0.34-1.65
			c-0.07-0.58-0.12-1.18-0.15-1.79c-0.03-0.62-0.09-1.26-0.19-1.93c-0.06-0.42-0.14-0.85-0.23-1.26c-0.09-0.42-0.23-0.79-0.41-1.11
			c-0.18-0.33-0.43-0.59-0.75-0.79c-0.32-0.2-0.73-0.31-1.25-0.31h-5.99v10.34h-5.09v-26H101.71z M100.36,126.68
			c0.53,0,1.04-0.06,1.54-0.17c0.5-0.11,0.94-0.3,1.32-0.57c0.39-0.26,0.69-0.61,0.92-1.04c0.23-0.43,0.35-0.96,0.35-1.58
			c0-0.42-0.06-0.82-0.18-1.2c-0.12-0.37-0.3-0.7-0.55-0.98c-0.25-0.28-0.56-0.5-0.93-0.66c-0.37-0.16-0.81-0.24-1.31-0.24h-6.09
			v6.44H100.36z"/>
		<path class="st8" d="M131.59,115.55v4.7h-12.28v5.7h11.41v4.58h-11.41v6.4h12.33v4.63h-17.36v-26H131.59z"/>
		<path class="st8" d="M142.58,115.55h5.47l8.72,26h-5.42l-1.77-5.8h-8.78l-1.81,5.8h-5.33L142.58,115.55z M142.15,131.48h6.09
			l-2.97-9.53h-0.05L142.15,131.48z"/>
		<path class="st8" d="M165.2,115.55v21.1h11.09v4.9h-16.17v-26H165.2z"/>
		<path class="st8" d="M202.53,121.1c-0.37-0.68-0.83-1.26-1.38-1.72c-0.55-0.46-1.18-0.8-1.88-1.03c-0.7-0.23-1.46-0.34-2.27-0.34
			c-0.89,0-1.7,0.13-2.42,0.4c-0.72,0.26-1.37,0.64-1.94,1.11c-0.57,0.48-1.06,1.04-1.48,1.69c-0.42,0.65-0.76,1.36-1.04,2.13
			c-0.27,0.77-0.48,1.58-0.61,2.44c-0.13,0.86-0.2,1.73-0.2,2.61c0,1.46,0.15,2.83,0.45,4.12c0.3,1.29,0.77,2.42,1.4,3.39
			c0.63,0.97,1.43,1.74,2.41,2.3c0.97,0.56,2.13,0.85,3.47,0.85c0.99,0,1.88-0.19,2.66-0.57c0.78-0.38,1.45-0.9,2-1.55
			c0.55-0.66,0.98-1.44,1.29-2.34c0.31-0.9,0.5-1.88,0.56-2.94h3.25c-0.14,1.66-0.46,3.13-0.96,4.42c-0.5,1.29-1.17,2.38-2.01,3.28
			c-0.84,0.89-1.85,1.57-3.03,2.04c-1.18,0.47-2.52,0.7-4.02,0.7c-1.79,0-3.36-0.34-4.71-1.03c-1.34-0.69-2.46-1.64-3.35-2.84
			c-0.89-1.21-1.56-2.63-2.01-4.26c-0.44-1.63-0.67-3.4-0.67-5.29c0-1.27,0.11-2.5,0.32-3.68c0.21-1.18,0.53-2.28,0.94-3.3
			c0.42-1.02,0.93-1.94,1.55-2.78c0.62-0.83,1.33-1.54,2.14-2.13c0.81-0.59,1.72-1.05,2.73-1.37c1.01-0.32,2.11-0.49,3.3-0.49
			c1.23,0,2.39,0.19,3.47,0.56c1.08,0.37,2.04,0.92,2.87,1.65c0.84,0.72,1.54,1.62,2.1,2.69c0.56,1.07,0.94,2.29,1.15,3.68h-3.31
			C203.16,122.58,202.9,121.79,202.53,121.1z"/>
		<path class="st8" d="M213.2,115.55v9.65c0.25-0.44,0.58-0.85,0.99-1.22c0.41-0.37,0.85-0.68,1.33-0.94
			c0.48-0.26,0.97-0.46,1.48-0.61c0.51-0.15,0.98-0.22,1.43-0.22c1.14,0,2.08,0.17,2.83,0.52c0.75,0.35,1.34,0.83,1.78,1.44
			c0.44,0.62,0.75,1.35,0.92,2.2c0.18,0.85,0.26,1.77,0.26,2.77v12.41h-2.97v-12.73c0-1.14-0.28-2.04-0.84-2.7
			c-0.56-0.65-1.36-0.98-2.42-0.98c-0.8,0-1.51,0.15-2.11,0.45c-0.6,0.3-1.1,0.71-1.5,1.22c-0.4,0.52-0.7,1.12-0.9,1.81
			c-0.2,0.69-0.3,1.44-0.3,2.22v10.71h-2.97v-26H213.2z"/>
		<path class="st8" d="M243.31,141.34c-0.27,0.21-0.57,0.37-0.9,0.47c-0.34,0.11-0.72,0.16-1.16,0.16c-0.35,0-0.67-0.06-0.97-0.18
			c-0.3-0.12-0.55-0.3-0.77-0.55c-0.22-0.24-0.39-0.55-0.52-0.92c-0.12-0.37-0.19-0.8-0.19-1.29c-0.33,0.49-0.7,0.93-1.13,1.29
			c-0.43,0.37-0.89,0.67-1.39,0.92c-0.5,0.24-1.02,0.43-1.57,0.55c-0.55,0.12-1.1,0.18-1.66,0.18c-0.77,0-1.5-0.1-2.18-0.29
			c-0.68-0.2-1.27-0.51-1.79-0.94c-0.51-0.43-0.91-0.98-1.21-1.65c-0.3-0.67-0.44-1.49-0.44-2.45c0-0.73,0.07-1.36,0.22-1.9
			c0.15-0.54,0.35-1,0.61-1.39c0.26-0.39,0.56-0.72,0.92-0.98c0.36-0.26,0.74-0.49,1.15-0.67c0.41-0.18,0.85-0.34,1.31-0.46
			c0.46-0.13,0.93-0.24,1.4-0.34c0.34-0.08,0.72-0.15,1.13-0.22c0.41-0.07,0.82-0.15,1.23-0.23c0.41-0.08,0.81-0.18,1.19-0.29
			c0.39-0.11,0.73-0.26,1.02-0.43c0.3-0.17,0.53-0.39,0.71-0.64c0.18-0.25,0.27-0.56,0.27-0.91c0-0.65-0.11-1.17-0.32-1.57
			c-0.21-0.4-0.49-0.71-0.83-0.92c-0.34-0.22-0.73-0.36-1.16-0.44c-0.43-0.07-0.86-0.11-1.29-0.11c-0.56,0-1.08,0.05-1.56,0.16
			c-0.48,0.11-0.89,0.3-1.24,0.57c-0.35,0.27-0.62,0.64-0.83,1.1c-0.21,0.46-0.32,1.05-0.35,1.75h-2.97
			c0.03-1.2,0.25-2.21,0.64-3.04c0.4-0.83,0.92-1.5,1.58-2.02c0.66-0.52,1.41-0.89,2.26-1.11c0.85-0.23,1.75-0.34,2.7-0.34
			c0.5,0,1,0.03,1.52,0.08c0.51,0.05,1,0.15,1.47,0.29c0.47,0.14,0.91,0.34,1.31,0.59c0.41,0.25,0.76,0.57,1.07,0.96
			c0.3,0.39,0.54,0.86,0.71,1.41c0.17,0.55,0.26,1.2,0.26,1.94v9.59c0,0.35,0,0.64,0.01,0.89c0,0.25,0.03,0.45,0.07,0.61
			c0.04,0.16,0.12,0.28,0.22,0.35c0.11,0.07,0.26,0.11,0.46,0.11c0.1,0,0.23-0.02,0.39-0.05c0.16-0.03,0.35-0.1,0.57-0.21V141.34z
			 M233.68,139.04c0.89,0,1.65-0.13,2.27-0.4c0.62-0.27,1.13-0.6,1.53-1.01c0.39-0.4,0.68-0.85,0.87-1.33
			c0.18-0.48,0.28-0.93,0.28-1.36v-3.08c-0.24,0.18-0.54,0.33-0.9,0.45c-0.36,0.12-0.75,0.22-1.18,0.31
			c-0.43,0.09-0.87,0.17-1.33,0.25c-0.46,0.08-0.92,0.17-1.36,0.28c-0.44,0.11-0.87,0.25-1.28,0.41c-0.41,0.16-0.76,0.37-1.07,0.62
			c-0.3,0.25-0.55,0.56-0.73,0.93c-0.18,0.37-0.27,0.81-0.27,1.33c0,0.49,0.09,0.91,0.26,1.24c0.17,0.33,0.4,0.6,0.7,0.8
			c0.29,0.2,0.63,0.35,1.01,0.44C232.85,139,233.25,139.04,233.68,139.04z"/>
		<path class="st8" d="M248.64,122.64l0.05,2.82c0.58-1.1,1.3-1.92,2.17-2.45c0.87-0.53,1.92-0.8,3.16-0.8
			c1.14,0,2.08,0.17,2.83,0.52c0.75,0.35,1.34,0.83,1.78,1.44c0.44,0.62,0.75,1.35,0.92,2.2c0.18,0.85,0.26,1.77,0.26,2.77v12.41
			h-2.93v-12.73c0-1.14-0.29-2.04-0.86-2.7c-0.57-0.65-1.39-0.98-2.44-0.98c-0.8,0-1.51,0.15-2.11,0.45c-0.6,0.3-1.1,0.71-1.5,1.22
			c-0.4,0.52-0.7,1.12-0.9,1.81c-0.2,0.69-0.3,1.44-0.3,2.22v10.71h-2.97v-18.91H248.64z"/>
		<path class="st8" d="M278.5,139.85c0,1.54-0.16,2.9-0.47,4.07c-0.31,1.17-0.79,2.14-1.44,2.92c-0.65,0.78-1.47,1.37-2.46,1.76
			c-1,0.39-2.18,0.59-3.54,0.59c-0.51,0-1.04-0.05-1.57-0.14c-0.53-0.1-1.05-0.24-1.56-0.44c-0.5-0.2-0.98-0.45-1.43-0.75
			c-0.45-0.3-0.85-0.67-1.19-1.1c-0.34-0.43-0.62-0.92-0.83-1.47c-0.21-0.55-0.33-1.17-0.35-1.85h2.97c0.02,0.36,0.1,0.68,0.24,0.97
			c0.14,0.29,0.31,0.55,0.52,0.77c0.21,0.23,0.45,0.42,0.73,0.58c0.28,0.16,0.57,0.29,0.87,0.4c0.3,0.11,0.61,0.19,0.93,0.24
			c0.32,0.05,0.62,0.08,0.92,0.08c0.89,0,1.64-0.17,2.27-0.51c0.62-0.34,1.13-0.82,1.52-1.43c0.39-0.61,0.67-1.34,0.85-2.19
			c0.18-0.85,0.26-1.78,0.26-2.8v-1c-0.25,0.52-0.56,0.98-0.94,1.37c-0.38,0.39-0.8,0.73-1.25,1c-0.46,0.27-0.94,0.47-1.45,0.61
			c-0.51,0.14-1.02,0.21-1.54,0.21c-1.26,0-2.36-0.25-3.3-0.76c-0.94-0.51-1.73-1.2-2.35-2.07c-0.62-0.87-1.09-1.88-1.4-3.04
			c-0.31-1.15-0.47-2.38-0.47-3.67c0-0.74,0.05-1.5,0.16-2.28c0.11-0.78,0.29-1.54,0.54-2.28c0.25-0.74,0.58-1.43,0.98-2.09
			c0.4-0.65,0.89-1.23,1.47-1.72c0.58-0.49,1.25-0.88,2.03-1.17c0.77-0.29,1.65-0.43,2.65-0.43c1.01,0,1.95,0.25,2.79,0.76
			c0.85,0.51,1.55,1.23,2.1,2.17v-2.5h2.77V139.85z M270.69,138.83c0.61,0,1.15-0.1,1.63-0.29c0.48-0.19,0.9-0.46,1.26-0.79
			c0.36-0.34,0.67-0.73,0.92-1.19c0.25-0.46,0.46-0.95,0.61-1.47c0.16-0.52,0.27-1.07,0.35-1.64c0.07-0.57,0.11-1.14,0.11-1.71
			c0-0.53-0.04-1.06-0.11-1.59c-0.07-0.53-0.18-1.04-0.34-1.53c-0.16-0.49-0.36-0.95-0.6-1.37c-0.25-0.42-0.54-0.79-0.88-1.11
			c-0.34-0.31-0.74-0.56-1.19-0.74c-0.45-0.18-0.96-0.27-1.53-0.27c-0.87,0-1.62,0.18-2.24,0.55c-0.62,0.36-1.12,0.86-1.5,1.48
			c-0.39,0.62-0.67,1.34-0.84,2.15c-0.18,0.81-0.26,1.66-0.26,2.56c0,0.82,0.08,1.65,0.23,2.48c0.15,0.83,0.41,1.58,0.77,2.24
			c0.36,0.67,0.83,1.21,1.42,1.63C269.09,138.62,269.82,138.83,270.69,138.83z"/>
		<path class="st8" d="M297.06,135.42c-0.18,1.07-0.48,2.01-0.9,2.82c-0.42,0.82-0.94,1.5-1.57,2.06c-0.62,0.56-1.34,0.97-2.14,1.26
			c-0.8,0.28-1.68,0.42-2.62,0.42c-1.36,0-2.54-0.25-3.54-0.74c-1-0.49-1.83-1.18-2.5-2.07c-0.67-0.88-1.17-1.94-1.51-3.15
			c-0.34-1.22-0.53-2.55-0.57-4c0-1.41,0.19-2.72,0.57-3.92c0.38-1.2,0.92-2.23,1.62-3.1c0.7-0.87,1.53-1.55,2.51-2.05
			c0.97-0.49,2.04-0.74,3.21-0.74c1.02,0,1.92,0.17,2.7,0.49c0.78,0.33,1.46,0.77,2.03,1.33c0.57,0.56,1.05,1.2,1.44,1.93
			c0.39,0.73,0.69,1.5,0.92,2.3c0.23,0.81,0.38,1.62,0.47,2.45c0.09,0.83,0.13,1.62,0.11,2.36h-12.53c0,0.82,0.1,1.58,0.31,2.3
			c0.21,0.72,0.52,1.35,0.95,1.89c0.43,0.54,0.96,0.97,1.6,1.29c0.64,0.32,1.4,0.47,2.28,0.47c0.52,0,1.01-0.07,1.47-0.21
			c0.46-0.14,0.87-0.36,1.24-0.66c0.37-0.29,0.68-0.67,0.95-1.13c0.27-0.46,0.47-0.99,0.61-1.62H297.06z M289.48,125.13
			c-0.69,0-1.32,0.13-1.88,0.4c-0.56,0.27-1.04,0.63-1.44,1.09c-0.4,0.46-0.72,1-0.96,1.61c-0.24,0.62-0.38,1.27-0.43,1.96h9.4
			c-0.05-0.71-0.2-1.37-0.44-1.99c-0.25-0.62-0.58-1.15-0.99-1.61c-0.41-0.46-0.89-0.82-1.45-1.08
			C290.74,125.27,290.14,125.13,289.48,125.13z"/>
	</g>
	<g>
		<g>
			<path class="st9" d="M81.71,21.06c0-2.61-2.13-4.72-4.77-4.72c-2.63,0-4.76,2.12-4.76,4.72c0,2.62,2.13,4.73,4.76,4.73
				C79.58,25.79,81.71,23.67,81.71,21.06"/>
			<path class="st9" d="M105.26,21.06c0-2.61-2.13-4.72-4.77-4.72c-2.63,0-4.76,2.12-4.76,4.72c0,2.62,2.13,4.73,4.76,4.73
				C103.12,25.79,105.26,23.67,105.26,21.06"/>
			<polygon class="st9" points="43.06,35.26 43.06,29.75 67.91,29.75 67.91,35.26 58.78,35.26 58.78,59.55 52.18,59.55 52.18,35.26 
							"/>
			<path class="st9" d="M123.41,54.46c0.62,0,1.22-0.06,1.8-0.19c0.56-0.13,1.08-0.33,1.5-0.62c0.44-0.3,0.78-0.7,1.05-1.2
				c0.26-0.5,0.39-1.15,0.39-1.93c0-1.53-0.42-2.63-1.27-3.28c-0.84-0.66-1.97-0.99-3.36-0.99h-7v8.21H123.41 M123.05,41.79
				c1.15,0,2.09-0.26,2.83-0.83c0.74-0.55,1.1-1.46,1.1-2.71c0-0.69-0.12-1.26-0.37-1.71c-0.25-0.44-0.57-0.79-0.98-1.04
				c-0.41-0.25-0.9-0.43-1.42-0.52c-0.54-0.1-1.09-0.15-1.65-0.15h-6.03v6.96H123.05z M123.86,29.75c1.39,0,2.66,0.12,3.8,0.37
				c1.15,0.25,2.13,0.67,2.95,1.23c0.8,0.57,1.44,1.33,1.89,2.27c0.45,0.94,0.68,2.12,0.68,3.5c0,1.5-0.33,2.76-1,3.76
				c-0.65,1-1.65,1.83-2.95,2.46c1.79,0.52,3.12,1.45,4,2.77c0.88,1.32,1.33,2.92,1.33,4.78c0,1.51-0.28,2.81-0.86,3.91
				c-0.57,1.1-1.35,2-2.3,2.69c-0.97,0.7-2.07,1.21-3.31,1.55c-1.23,0.33-2.51,0.51-3.82,0.51h-14.13V29.75H123.86z"/>
			<polygon class="st9" points="81.85,29.75 88.87,50.24 88.94,50.24 95.59,29.75 105.11,29.75 105.11,59.55 98.51,59.55 
				98.51,38.43 98.55,38.43 91.27,59.55 86.17,59.55 79.01,38.63 78.92,38.63 78.92,59.55 72.32,59.55 72.32,29.75 			"/>
		</g>
		<g>
			<g>
				<g>
					<g>
						<g>
							<polygon class="st10" points="187.46,69 187.46,69.67 188.76,69.67 188.76,73.16 189.71,73.16 189.71,69.67 191.02,69.67 
								191.02,69 							"/>
							<path class="st10" d="M192.11,73.16V71c0.14-0.14,0.43-0.32,0.8-0.32c0.29,0,0.44,0.13,0.44,0.53v1.94h0.86v-2.05
								c0-0.61-0.34-1-1.06-1c-0.42,0-0.77,0.2-1.04,0.38v-1.48h-0.85v4.15H192.11z"/>
							<path class="st10" d="M197.41,73.16c-0.05-0.13-0.07-0.28-0.07-0.43v-1.41c0-0.9-0.41-1.19-1.38-1.21
								c-0.52-0.01-1.12,0.23-1.34,0.55l0.55,0.35c0.17-0.19,0.39-0.37,0.79-0.37c0.3,0,0.52,0.13,0.52,0.36v0.25
								c-1.39,0.14-2.06,0.5-2.06,1.17c0,0.41,0.33,0.79,0.97,0.79c0.45,0,0.77-0.12,1.12-0.32l0.06,0.26H197.41z M196.49,72.37
								c-0.18,0.13-0.52,0.32-0.79,0.32c-0.24,0-0.41-0.13-0.41-0.35c0-0.42,0.63-0.52,1.2-0.61V72.37z"/>
							<path class="st10" d="M198.71,73.16V71c0.15-0.14,0.43-0.32,0.8-0.32c0.29,0,0.44,0.13,0.44,0.53v1.94h0.86v-2.05
								c0-0.61-0.35-1-1.06-1c-0.42,0-0.79,0.2-1.1,0.38v-0.32h-0.79v2.99H198.71z"/>
							<path class="st10" d="M204.01,73.16c-0.06-0.13-0.07-0.28-0.07-0.43v-1.41c0-0.9-0.41-1.19-1.38-1.21
								c-0.52-0.01-1.12,0.23-1.34,0.55l0.55,0.35c0.17-0.19,0.39-0.37,0.79-0.37c0.3,0,0.52,0.13,0.52,0.36v0.25
								c-1.39,0.14-2.06,0.5-2.06,1.17c0,0.41,0.32,0.79,0.97,0.79c0.45,0,0.77-0.12,1.12-0.32l0.06,0.26H204.01z M203.09,72.37
								c-0.18,0.13-0.52,0.32-0.79,0.32c-0.24,0-0.41-0.13-0.41-0.35c0-0.42,0.63-0.52,1.2-0.61V72.37z"/>
							<path class="st10" d="M207.16,70.91c-0.2-0.5-0.74-0.8-1.42-0.8c-0.97,0-1.56,0.6-1.56,1.55c0,0.95,0.59,1.55,1.56,1.55
								c0.66,0.01,1.09-0.21,1.44-0.75l-0.65-0.31c-0.17,0.27-0.39,0.48-0.76,0.48c-0.5,0-0.73-0.31-0.73-0.98
								c0-0.67,0.23-0.98,0.7-0.98c0.41,0,0.57,0.2,0.7,0.45L207.16,70.91z"/>
							<path class="st10" d="M208.42,73.16V71c0.15-0.14,0.43-0.32,0.8-0.32c0.29,0,0.44,0.13,0.44,0.53v1.94h0.85v-2.05
								c0-0.61-0.34-1-1.06-1c-0.42,0-0.77,0.2-1.03,0.38v-1.48h-0.86v4.15H208.42z"/>
							<path class="st10" d="M213.72,73.16c-0.06-0.13-0.07-0.28-0.07-0.43v-1.41c0-0.9-0.41-1.19-1.38-1.21
								c-0.52-0.01-1.12,0.23-1.34,0.55l0.55,0.35c0.16-0.19,0.39-0.37,0.79-0.37c0.3,0,0.53,0.13,0.53,0.36v0.25
								c-1.4,0.14-2.06,0.5-2.06,1.17c0,0.41,0.32,0.79,0.97,0.79c0.45,0,0.77-0.12,1.12-0.32l0.06,0.26H213.72z M212.8,72.37
								c-0.18,0.13-0.52,0.32-0.79,0.32c-0.24,0-0.42-0.13-0.42-0.35c0-0.42,0.63-0.52,1.2-0.61V72.37z"/>
							<path class="st10" d="M214.97,73.16v-1.82c0-0.07,0.37-0.48,0.8-0.48c0.06,0,0.11,0,0.15,0.01v-0.75
								c-0.51,0.01-0.8,0.21-1.01,0.57h-0.02v-0.51h-0.79v2.99H214.97z"/>
							<path class="st10" d="M216.03,70.17v0.58h0.5v1.78c0,0.43,0.25,0.69,0.88,0.69c0.24,0,0.44-0.02,0.68-0.05v-0.59
								c-0.12,0.02-0.26,0.06-0.39,0.06c-0.21,0-0.31-0.05-0.31-0.21v-1.69h0.7v-0.58h-0.7v-0.99h-0.86v0.99H216.03z"/>
							<path class="st11" d="M219.85,73.16h1.84c1.27,0,1.81-0.45,1.81-1.09c0-0.63-0.22-0.88-0.87-1.1
								c0.54-0.18,0.76-0.51,0.76-0.94c-0.05-0.74-0.7-1.02-1.69-1.02h-1.85V73.16z M220.81,71.31h0.95c0.55,0,0.79,0.21,0.79,0.6
								c0,0.4-0.24,0.6-0.79,0.6h-0.95V71.31z M220.81,69.65h0.95c0.46,0,0.68,0.22,0.68,0.51c0,0.29-0.23,0.51-0.68,0.51h-0.95
								V69.65z"/>
							<path class="st11" d="M226.89,73.16c-0.05-0.13-0.07-0.28-0.07-0.43v-1.41c0-0.9-0.41-1.19-1.38-1.21
								c-0.52-0.01-1.12,0.23-1.34,0.55l0.55,0.35c0.16-0.19,0.39-0.37,0.79-0.37c0.3,0,0.52,0.13,0.52,0.36v0.25
								c-1.39,0.14-2.05,0.5-2.05,1.17c0,0.41,0.32,0.79,0.97,0.79c0.45,0,0.77-0.12,1.12-0.32l0.06,0.26H226.89z M225.96,72.37
								c-0.18,0.13-0.52,0.32-0.79,0.32c-0.24,0-0.41-0.13-0.41-0.35c0-0.42,0.63-0.52,1.2-0.61V72.37z"/>
							<path class="st11" d="M228.39,73.16V71c0.15-0.14,0.43-0.32,0.8-0.32c0.29,0,0.44,0.13,0.44,0.53v1.94h0.86v-2.05
								c0-0.61-0.35-1-1.06-1c-0.42,0-0.79,0.2-1.1,0.38v-0.32h-0.79v2.99H228.39z"/>
							<polygon class="st11" points="232.1,73.16 232.1,72.24 232.53,71.82 233.32,73.16 234.24,73.16 233.1,71.29 234.16,70.17 
								233.18,70.17 232.12,71.33 232.1,71.33 232.1,69.01 231.24,69.01 231.24,73.16 							"/>
						</g>
					</g>
				</g>
				<g>
					<g>
						<g>
							<path class="st11" d="M181.2,63.97c0,0.6-0.57,0.77-1.27,0.77c0,0-1.05,0-1.47,0l0-1.69h-1.63l0,2.85c0.47,0,2.75,0,3.85,0
								c1.09,0,2.15-0.64,2.15-1.74c0-1.3-0.45-1.74-1.7-2.11c-0.94-0.28-2.76-0.4-2.65-0.9c0.06-0.31-0.01-0.36,1.02-0.5
								c0.77-0.1,2.91,0.12,3.12,0.12v-1.13c-0.47,0-1.17-0.17-2.85-0.17c-2.03,0-2.99,0.43-3.04,1.65
								c-0.02,0.81,0.78,1.23,1.49,1.46C179.39,62.95,181.2,63,181.2,63.97z"/>
						</g>
					</g>
					<g>
						<path class="st11" d="M187.84,64.95c-0.31,0.66-1.47,1.04-2.2,1.04c-1.75,0-2.44-1.1-2.44-2.55v-3.8h1.65v3.83
							c0,0.8,0.28,1.32,1.26,1.32c1.07,0,1.73-0.69,1.73-1.65v-3.5h1.59v6.27h-1.59V64.95z"/>
						<path class="st11" d="M192.14,61.58c0-1.07-1.16-0.79-2.01-0.79v-1.15h1.39c1.21,0,2.24,0.35,2.24,1.59v4.68h-1.61V61.58z"/>
						<path class="st11" d="M201.18,65.91v-4c0-1.61-1.44-2.36-3.07-2.36c-1.78,0-3.15,0.68-3.15,2.43v3.94h1.61v-2.68h1.51v-0.9
							h-1.51c0-0.98,0.14-1.64,1.49-1.64c0.92,0,1.51,0.38,1.51,1.23v3.99H201.18z"/>
						<path class="st11" d="M203.88,61.58c0-1.07-1.16-0.79-2.01-0.79v-1.15h1.38c1.21,0,2.23,0.35,2.23,1.59v4.68h-1.61V61.58z"/>
						<path class="st11" d="M210.7,61.48h1.56v-0.17c0-1.32-1.65-1.84-2.84-1.84c-1.16,0-2.84,0.52-2.84,1.8
							c0,2.46,4.38,1.61,4.38,2.87c0,0.66-0.87,0.82-1.44,0.82c-0.85,0-1.56-0.28-1.59-1.15l-1.58-0.02
							C206.29,65.42,208,66,209.53,66c1.42,0,2.98-0.5,2.98-2c0-2.35-4.35-1.64-4.35-2.72c0-0.55,0.66-0.74,1.16-0.74
							C209.99,60.54,210.69,60.77,210.7,61.48z"/>
					</g>
					<g>
						<g>
							<g>
								<path class="st11" d="M217.57,63.97c0,0.6-0.57,0.77-1.27,0.77c0,0-1.05,0-1.47,0l0-1.69h-1.63l0,2.85c0.47,0,2.75,0,3.85,0
									c1.09,0,2.15-0.64,2.15-1.74c0-1.3-0.45-1.74-1.7-2.11c-0.94-0.28-2.76-0.4-2.65-0.9c0.06-0.31-0.01-0.36,1.02-0.5
									c0.77-0.1,2.92,0.12,3.12,0.12v-1.13c-0.47,0-1.17-0.17-2.85-0.17c-2.03,0-2.99,0.43-3.04,1.65
									c-0.02,0.81,0.78,1.23,1.49,1.46C215.76,62.95,217.57,63,217.57,63.97z"/>
							</g>
						</g>
						<g>
							<path class="st11" d="M224.21,64.95c-0.31,0.66-1.47,1.04-2.2,1.04c-1.75,0-2.44-1.1-2.44-2.55v-3.8h1.65v3.83
								c0,0.8,0.28,1.32,1.26,1.32c1.07,0,1.73-0.69,1.73-1.65v-3.5h1.59v6.27h-1.59V64.95z"/>
							<path class="st11" d="M232.6,59.64c-0.07,0.79-0.57,1.69-1.47,1.87c1.04,0.24,1.47,1.13,1.47,2.05
								c0,1.67-1.14,2.43-2.96,2.43c-1.84,0-2.96-0.66-2.96-2.41v-3.94h1.61v4.1c0,0.8,0.4,1.15,1.3,1.15
								c1.06,0,1.37-0.66,1.37-1.47c0-0.98-0.59-1.67-1.66-1.87c0.8-0.3,1.61-0.94,1.61-1.8v-0.11H232.6z"/>
							<path class="st11" d="M234.95,61.58c0-1.07-1.16-0.79-2.01-0.79v-1.15h1.38c1.21,0,2.24,0.35,2.24,1.59v4.68h-1.61V61.58z"/>
							<path class="st11" d="M241.84,65.91h1.59v-6.27h-1.84c-0.19,0.25-0.47,0.57-0.85,0.57c-0.36,0-0.66-0.32-0.85-0.57
								c-2.2,0-2.91,1.47-2.91,3.28c0,2.2,1.56,2.96,3.69,2.99v-1.12c-1.37,0-2.1-0.71-2.1-1.97c0-0.42,0.07-2.03,0.85-2.03
								c0.26,0.35,0.73,0.63,1.19,0.63c0.49,0,0.92-0.31,1.21-0.65C241.84,62.46,241.84,64.21,241.84,65.91z"/>
						</g>
					</g>
				</g>
			</g>
			<g>
				<g>
					<g>
						<g>
							<path class="st12" d="M191.84,24.6c3.63-9.15,14.7-10.95,21.43-10.95h30.01c-3.28,8.27-12.63,10.55-19.37,10.91
								c-0.52,0.04-2.06,0.06-2.06,0.06L191.84,24.6z"/>
						</g>
						<path d="M188.3,44.64c-1.68-5.69,6.73-13.02,18.8-16.38c2.47-0.69,4.9-1.15,7.21-1.41c-2.96,0.86-5.88,2.64-7.7,6.12
							c-0.6,1.14-3.38,6.6-5.02,8.88c-2.36,3.28-4.14,3.21-4.14,3.21c10.89,1.04,16.91-3.35,19.12-7.53
							c1.05-2.22,2.92-5.77,3.78-7.19c1.01-1.98,2.17-2.93,2.99-3.38c4.55,0.75,7.8,2.66,8.64,5.52c1.68,5.69-6.73,13.02-18.8,16.38
							C201.12,52.22,189.98,50.33,188.3,44.64z"/>
					</g>
				</g>
			</g>
		</g>
		<g>
			<polygon class="st13" points="155.5,85.88 155.5,0.83 157.02,0.83 157.02,85.88 155.5,85.88 			"/>
		</g>
	</g>
</g>
</svg>
